<svg width="19" height="18" viewBox="0 0 19 18" fill="none" xmlns="http://www.w3.org/2000/svg">
<path d="M4.99999 4.00033V3.16699C4.99999 1.78628 6.11928 0.666992 7.49999 0.666992H10.8333C12.214 0.666992 13.3333 1.78628 13.3333 3.16699V4.00033H15C16.841 4.00033 18.3333 5.49271 18.3333 7.33366V14.0003C18.3333 15.8413 16.841 17.3337 15 17.3337H3.33333C1.49238 17.3337 0 15.8413 0 14.0003V7.33366C0 5.49271 1.49238 4.00033 3.33333 4.00033H4.99999ZM6.66666 4.00033H11.6667V3.16699C11.6667 2.70675 11.2936 2.33366 10.8333 2.33366H7.49999C7.03976 2.33366 6.66666 2.70675 6.66666 3.16699V4.00033ZM4.99999 5.66699H3.33333C2.41286 5.66699 1.66667 6.41318 1.66667 7.33366V14.0003C1.66667 14.9208 2.41286 15.667 3.33333 15.667H4.99999V5.66699ZM6.66666 5.66699V15.667H11.6667V5.66699H6.66666ZM13.3333 5.66699V15.667H15C15.9205 15.667 16.6667 14.9208 16.6667 14.0003V7.33366C16.6667 6.41318 15.9205 5.66699 15 5.66699H13.3333Z" fill="#22BBB0"/>
</svg>
