<svg width="24" height="24" viewBox="0 0 24 24" fill="none" xmlns="http://www.w3.org/2000/svg">
<path d="M7.44433 18.8181C8.79281 19.7191 10.3782 20.2 12 20.2C14.1748 20.2 16.2605 19.3361 17.7983 17.7983C19.3361 16.2605 20.2 14.1748 20.2 12C20.2 10.3782 19.7191 8.79281 18.8181 7.44433C17.917 6.09584 16.6364 5.04483 15.138 4.42419C13.6397 3.80355 11.9909 3.64117 10.4003 3.95756C8.80962 4.27396 7.34852 5.05494 6.20173 6.20173C5.05494 7.34852 4.27396 8.80962 3.95756 10.4003C3.64117 11.9909 3.80355 13.6397 4.42419 15.138C5.04483 16.6364 6.09584 17.917 7.44433 18.8181ZM8.30149 6.46479C9.39625 5.7333 10.6833 5.34286 12 5.34286C13.7656 5.34286 15.4589 6.04424 16.7073 7.29269C17.9558 8.54115 18.6571 10.2344 18.6571 12C18.6571 13.3167 18.2667 14.6038 17.5352 15.6985C16.8037 16.7933 15.764 17.6465 14.5476 18.1504C13.3311 18.6543 11.9926 18.7861 10.7013 18.5292C9.4099 18.2724 8.22371 17.6383 7.29269 16.7073C6.36167 15.7763 5.72764 14.5901 5.47078 13.2987C5.21391 12.0074 5.34574 10.6689 5.84961 9.45242C6.35347 8.23599 7.20673 7.19629 8.30149 6.46479Z" fill="#22BBB0" stroke="#22BBB0" stroke-width="0.4"/>
<path d="M14.9929 16L11 13.0187V8H12.4286V12.576L16 15.248L14.9929 16Z" fill="#22BBB0"/>
</svg>
