<svg width="16" height="16" viewBox="0 0 16 16" fill="none" xmlns="http://www.w3.org/2000/svg">
<g clip-path="url(#clip0_1112_10410)">
<path d="M4.525 0.531222C4.17188 -0.0250279 3.3625 -0.181278 2.8375 0.237472C1.10313 1.62185 0 3.68747 0 5.99997H8L4.525 0.531222ZM15.5 2.99997H14C12.8969 2.99997 12 3.89685 12 4.99997V6.99997H0C0 8.58122 0.71875 10.0125 1.88437 11.0843C0.803125 11.3625 0 12.3343 0 13.5C0 14.8812 1.11875 16 2.5 16C3.88125 16 5 14.8812 5 13.5C5 13.2218 4.94375 12.9625 4.8625 12.7125C5.5375 12.8968 6.25625 13 7 13C7.74375 13 8.46562 12.8968 9.1375 12.7125C9.05312 12.9625 9 13.2218 9 13.5C9 14.8812 10.1187 16 11.5 16C12.8813 16 14 14.8812 14 13.5C14 12.3343 13.1969 11.3625 12.1156 11.0843C13.2813 10.0125 14 8.58122 14 6.99997V4.99997H15.5C15.775 4.99997 16 4.77497 16 4.49997V3.49997C16 3.22497 15.775 2.99997 15.5 2.99997ZM2.5 14.5C1.95 14.5 1.5 14.05 1.5 13.5C1.5 12.95 1.95 12.5 2.5 12.5C3.05 12.5 3.5 12.95 3.5 13.5C3.5 14.05 3.05 14.5 2.5 14.5ZM12.5 13.5C12.5 14.05 12.05 14.5 11.5 14.5C10.95 14.5 10.5 14.05 10.5 13.5C10.5 12.95 10.95 12.5 11.5 12.5C12.05 12.5 12.5 12.95 12.5 13.5Z" fill="#22BBB0"/>
</g>
<defs>
<clipPath id="clip0_1112_10410">
<rect width="16" height="16" fill="white"/>
</clipPath>
</defs>
</svg>
