<svg width="20" height="21" viewBox="0 0 20 21" fill="none" xmlns="http://www.w3.org/2000/svg">
<g clip-path="url(#clip0_1112_10705)">
<path d="M4.60542 2.80932C5.04152 2.53059 5.55995 2.40747 6.07442 2.46043C6.58888 2.5134 7.06835 2.73927 7.433 3.10043L7.55962 3.23768L8.73495 4.61408C9.09167 5.03186 9.31572 5.54501 9.37923 6.0897C9.44274 6.63438 9.34292 7.18658 9.09218 7.67759L8.98799 7.86122L8.15178 9.23436C8.00186 9.48468 8.36815 10.1822 9.47267 11.2376C10.4667 12.1873 11.1621 12.5645 11.4374 12.517L11.4842 12.5035L11.5389 12.4762L13.5792 11.1608C13.8533 10.9838 14.1727 10.8884 14.499 10.8859C14.8254 10.8834 15.145 10.974 15.4195 11.1468L15.5541 11.2422L17.613 12.8416C18.0165 13.1551 18.2992 13.596 18.4145 14.0916C18.5299 14.5872 18.4709 15.108 18.2475 15.5682L18.1534 15.742L17.7214 16.4645C17.3334 17.1127 16.7661 17.6382 16.087 17.9784C15.408 18.3187 14.6458 18.4595 13.891 18.3841C11.5418 18.1492 9.07621 16.7805 6.48238 14.3024C3.88312 11.8177 2.41255 9.42405 2.09732 7.10329C2.00214 6.40173 2.1009 5.68651 2.38313 5.03359C2.66536 4.38068 3.12052 3.81444 3.70026 3.39501L3.89081 3.26583L4.60542 2.80932V2.80932Z" fill="#22BBB0"/>
</g>
<defs>
<clipPath id="clip0_1112_10705">
<rect width="20" height="20" fill="white" transform="translate(0 0.5)"/>
</clipPath>
</defs>
</svg>
