<svg width="54" height="106" viewBox="0 0 54 106" fill="none" xmlns="http://www.w3.org/2000/svg">
<path d="M45.6169 105.2L8.16659 105.179C7.09541 105.179 6.03472 104.978 5.04512 104.587C4.05552 104.196 3.1564 103.623 2.39911 102.9C1.64182 102.178 1.0412 101.32 0.631563 100.376C0.221929 99.4322 0.0113035 98.4206 0.0117194 97.399L0.0307129 7.86122C0.0298807 6.83878 0.240384 5.82621 0.650189 4.8814C1.05999 3.93659 1.66106 3.07809 2.41902 2.35497C3.17698 1.63185 4.07698 1.0583 5.06753 0.667123C6.05809 0.275942 7.11979 0.0747988 8.19191 0.0751959L45.6454 0.0963289C46.7182 0.0955349 47.7807 0.296463 48.772 0.687618C49.7633 1.07877 50.664 1.65248 51.4226 2.37592C52.1812 3.09936 52.7828 3.95833 53.1929 4.9037C53.6031 5.84907 53.8138 6.86228 53.813 7.88538L53.794 97.4232C53.794 98.4463 53.5823 99.4593 53.1711 100.404C52.7599 101.349 52.1572 102.207 51.3976 102.93C50.638 103.652 49.7364 104.225 48.7445 104.614C47.7525 105.004 46.6897 105.203 45.6169 105.2V105.2Z" fill="#4B4B51"/>
<path d="M45.6048 3.26949H38.3426C37.8646 3.27979 37.4104 3.47062 37.0797 3.80007C36.7491 4.12952 36.5691 4.57064 36.5793 5.02656V6.28246C36.5887 6.73735 36.4088 7.17725 36.0789 7.50596C35.7491 7.83466 35.2961 8.02542 34.8192 8.03651H20.6653C20.187 8.02542 19.7328 7.83393 19.4022 7.504C19.0717 7.17407 18.8918 6.73263 18.902 6.27643V5.01146C18.9114 4.55578 18.7311 4.11511 18.4007 3.78583C18.0702 3.45656 17.6165 3.26548 17.1387 3.25439H8.22724C7.47813 3.25439 6.73638 3.39525 6.04441 3.66892C5.35244 3.94258 4.72385 4.34367 4.19459 4.84924C3.66533 5.35482 3.2458 5.95495 2.95999 6.6153C2.67418 7.27566 2.52772 7.98328 2.52896 8.69767L2.49414 96.0799C2.4933 97.5231 3.09277 98.9076 4.16105 99.9298C5.22932 100.952 6.67914 101.528 8.19242 101.532L45.5668 101.55C46.3167 101.553 47.0597 101.414 47.7533 101.142C48.4468 100.87 49.0772 100.47 49.6084 99.9652C50.1395 99.4603 50.5609 98.8604 50.8485 98.1999C51.136 97.5394 51.2841 96.8313 51.2841 96.1162L51.3031 8.71881C51.3022 7.27641 50.7021 5.8931 49.6341 4.87176C48.5661 3.85042 47.1173 3.27428 45.6048 3.26949V3.26949Z" fill="white"/>
<path d="M51.3155 8.71881C51.3147 7.27641 50.7146 5.8931 49.6466 4.87176C48.5786 3.85042 47.1297 3.27428 45.6172 3.26949H38.3424C37.8644 3.27979 37.4102 3.47062 37.0795 3.80007C36.7489 4.12952 36.5689 4.57064 36.5791 5.02656V6.28246C36.5885 6.73735 36.4086 7.17725 36.0787 7.50596C35.7489 7.83466 35.2959 8.02542 34.819 8.03651H20.6651C20.1868 8.02542 19.7326 7.83393 19.402 7.504C19.0715 7.17407 18.8916 6.73263 18.9018 6.27643V5.01146C18.9112 4.55578 18.7309 4.11511 18.4005 3.78583C18.07 3.45656 17.6163 3.26548 17.1385 3.25439H8.22704C7.47793 3.25439 6.73617 3.39525 6.04421 3.66892C5.35224 3.94258 4.72364 4.34367 4.19438 4.84924C3.66513 5.35482 3.24559 5.95495 2.95978 6.6153C2.67398 7.27566 2.52751 7.98328 2.52876 8.69767L2.50977 17.0543H51.3123L51.3155 8.71881Z" fill="#F5F5F5"/>
<path d="M47.3413 11.7888C46.6918 11.842 46.0398 11.8631 45.3881 11.8522C44.3085 11.8522 43.4316 11.8522 43.4316 11.822C44.0811 11.7689 44.7331 11.7477 45.3849 11.7586C46.4644 11.7496 47.3413 11.7647 47.3413 11.7888Z" fill="#1E1E26"/>
<path d="M47.3479 12.7552C46.6984 12.8084 46.0464 12.8296 45.3947 12.8186C44.3151 12.8186 43.4414 12.8186 43.4414 12.7884C44.0909 12.7352 44.7429 12.7141 45.3947 12.725C46.4742 12.7039 47.3479 12.719 47.3479 12.7552Z" fill="#1E1E26"/>
<path d="M47.3589 13.6968C46.7094 13.7499 46.0574 13.7711 45.4056 13.7602C44.7533 13.7819 44.1003 13.7708 43.4492 13.7269C43.4492 13.7028 44.3261 13.6726 45.4056 13.6666C46.4851 13.6605 47.3589 13.6605 47.3589 13.6968Z" fill="#1E1E26"/>
</svg>
