<svg width="37" height="80" viewBox="0 0 37 80" fill="none" xmlns="http://www.w3.org/2000/svg">
<path d="M24.4245 2.81885H22.8848V36.8378H24.4245V2.81885Z" fill="white" fill-opacity="0.4"/>
<path d="M11.6374 4.04932H10.0977V38.0683H11.6374V4.04932Z" fill="white" fill-opacity="0.4"/>
<path d="M24.81 5.86489H22.5004V2.57974C22.5025 2.53052 22.4843 2.48248 22.4498 2.44597C22.4152 2.40946 22.367 2.3874 22.3156 2.38455H12.2111C12.1853 2.38549 12.16 2.39129 12.1366 2.40162C12.1131 2.41194 12.092 2.42659 12.0745 2.44472C12.057 2.46285 12.0434 2.48411 12.0345 2.50728C12.0255 2.53045 12.0215 2.55507 12.0225 2.57974V5.31982H9.71289V2.57974C9.71187 1.94416 9.97426 1.33411 10.4425 0.883309C10.9108 0.432507 11.5468 0.177728 12.2111 0.174805H22.3156C22.9796 0.177729 23.6152 0.432626 24.0828 0.883534C24.5505 1.33444 24.812 1.9445 24.81 2.57974V5.86489Z" fill="#3A454A"/>
<path d="M9.97412 76.779C9.97412 77.2321 9.8337 77.675 9.57061 78.0517C9.30752 78.4284 8.93359 78.7221 8.49609 78.8954C8.05859 79.0688 7.57718 79.1142 7.11274 79.0258C6.64829 78.9374 6.22166 78.7192 5.88682 78.3989C5.55197 78.0785 5.32394 77.6703 5.23155 77.226C5.13917 76.7816 5.18658 76.321 5.3678 75.9024C5.54902 75.4838 5.8559 75.1261 6.24964 74.8743C6.64338 74.6226 7.10629 74.4883 7.57984 74.4883C8.21453 74.4893 8.82293 74.7309 9.27173 75.1603C9.72052 75.5897 9.97311 76.1718 9.97412 76.779V76.779Z" fill="white" fill-opacity="0.2"/>
<path d="M30.6226 76.779C30.6226 77.2323 30.482 77.6753 30.2188 78.0521C29.9555 78.4289 29.5814 78.7225 29.1436 78.8958C28.7059 79.0691 28.2243 79.1142 27.7598 79.0255C27.2952 78.9368 26.8686 78.7183 26.5339 78.3976C26.1992 78.0768 25.9715 77.6683 25.8795 77.2237C25.7876 76.7791 25.8355 76.3184 26.0173 75.8999C26.1992 75.4813 26.5066 75.1238 26.9009 74.8726C27.2951 74.6213 27.7584 74.4876 28.2321 74.4883C28.8665 74.4893 29.4745 74.731 29.9227 75.1605C30.3708 75.59 30.6226 76.1721 30.6226 76.779V76.779Z" fill="white" fill-opacity="0.2"/>
<path d="M34.1953 59.5504V42.7012C34.6843 42.7012 35.1533 42.887 35.4991 43.2179C35.8449 43.5487 36.0391 43.9974 36.0391 44.4653V57.7863C36.0381 58.2539 35.8435 58.7021 35.498 59.0327C35.1524 59.3633 34.684 59.5495 34.1953 59.5504V59.5504Z" fill="#1E1E26"/>
<path d="M29.6529 28.6177H5.60604C2.63612 28.6177 0.228516 30.9212 0.228516 33.7627V70.5144C0.228516 73.3559 2.63612 75.6594 5.60604 75.6594H29.6529C32.6228 75.6594 35.0304 73.3559 35.0304 70.5144V33.7627C35.0304 30.9212 32.6228 28.6177 29.6529 28.6177Z" fill="#22BBB0"/>
<path d="M34.999 34.5103C34.999 34.5619 27.2079 34.6061 17.5961 34.6061C7.98431 34.6061 0.185547 34.5619 0.185547 34.5103C0.185547 34.4587 7.98046 34.4146 17.5961 34.4146C27.2118 34.4146 34.999 34.4587 34.999 34.5103Z" fill="white"/>
<path d="M34.999 39.4786C34.999 39.5301 27.2079 39.5743 17.5961 39.5743C7.98431 39.5743 0.185547 39.5301 0.185547 39.4786C0.185547 39.427 7.98046 39.3828 17.5961 39.3828C27.2118 39.3828 34.999 39.4086 34.999 39.4786Z" fill="white"/>
<path d="M34.999 44.4468C34.999 44.4984 27.2079 44.5426 17.5961 44.5426C7.98431 44.5426 0.185547 44.4984 0.185547 44.4468C0.185547 44.3953 7.98046 44.3511 17.5961 44.3511C27.2118 44.3511 34.999 44.3916 34.999 44.4468Z" fill="white"/>
<path d="M34.999 49.4151C34.999 49.4667 27.2079 49.5108 17.5961 49.5108C7.98431 49.5108 0.185547 49.4667 0.185547 49.4151C0.185547 49.3635 7.98046 49.3193 17.5961 49.3193C27.2118 49.3193 34.999 49.3525 34.999 49.4151Z" fill="white"/>
<path d="M34.999 54.3834C34.999 54.4349 27.2079 54.4791 17.5961 54.4791C7.98431 54.4791 0.185547 54.4349 0.185547 54.3834C0.185547 54.3318 7.98046 54.2876 17.5961 54.2876C27.2118 54.2876 34.999 54.3281 34.999 54.3834Z" fill="white"/>
<path d="M34.999 59.3519C34.999 59.4034 27.2079 59.4476 17.5961 59.4476C7.98431 59.4476 0.185547 59.4034 0.185547 59.3519C0.185547 59.3003 7.98046 59.2524 17.5961 59.2524C27.2118 59.2524 34.999 59.2966 34.999 59.3519Z" fill="white"/>
<path d="M34.999 64.316C34.999 64.3712 27.2079 64.4117 17.5961 64.4117C7.98431 64.4117 0.185547 64.3712 0.185547 64.316C0.185547 64.2607 7.98046 64.2202 17.5961 64.2202C27.2118 64.2202 34.999 64.2644 34.999 64.316Z" fill="white"/>
<path d="M34.999 69.2842C34.999 69.3395 27.2079 69.38 17.5961 69.38C7.98431 69.38 0.185547 69.3395 0.185547 69.2842C0.185547 69.229 7.98046 69.1885 17.5961 69.1885C27.2118 69.1885 34.999 69.24 34.999 69.2842Z" fill="white"/>
<path d="M21.5178 41.6519H13.7383V42.9998H21.5178V41.6519Z" fill="#F8EC4E"/>
</svg>
