<svg width="20" height="21" viewBox="0 0 20 21" fill="none" xmlns="http://www.w3.org/2000/svg">
<path fill-rule="evenodd" clip-rule="evenodd" d="M1.90907 6.45726C1.92987 6.46441 1.95053 6.47253 1.97101 6.48164L8.62579 9.44383C9.15884 9.65868 9.59093 9.75016 9.99935 9.75016C10.4078 9.75016 10.8399 9.65868 11.3729 9.44383L18.0277 6.48164C18.0482 6.47253 18.0688 6.46441 18.0896 6.45726C17.5286 4.92612 16.0582 3.8335 14.3327 3.8335H5.66602C3.94047 3.8335 2.47011 4.92612 1.90907 6.45726ZM18.3327 7.98777L11.971 10.8195L11.9594 10.8246L11.9477 10.8294C11.2823 11.0991 10.6528 11.2502 9.99935 11.2502C9.34587 11.2502 8.71639 11.0991 8.05099 10.8294L8.03926 10.8246L8.02769 10.8195L1.66602 7.98777V13.1668C1.66602 15.376 3.45688 17.1668 5.66602 17.1668H14.3327C16.5418 17.1668 18.3327 15.376 18.3327 13.1668V7.98777Z" fill="#22BBB0"/>
</svg>
