<svg width="44" height="50" viewBox="0 0 44 50" fill="none" xmlns="http://www.w3.org/2000/svg">
<path d="M12.1562 0.35791L41.0283 7.76219C41.5566 7.89769 42.0071 8.22846 42.2806 8.68174C42.5541 9.13501 42.6281 9.67366 42.4865 10.1792L32.0757 47.34C31.9341 47.8456 31.5884 48.2766 31.1146 48.5382C30.6409 48.7998 30.0779 48.8707 29.5495 48.7352L0.677472 41.3309L12.1562 0.35791Z" fill="#1E1E26"/>
<path d="M22.4637 32.5893C21.8971 32.589 21.333 32.5181 20.7857 32.3781C19.9203 32.1594 19.1107 31.7739 18.4065 31.2454C17.7022 30.7168 17.1182 30.0562 16.6901 29.3041C15.7982 27.7592 15.5695 25.9429 16.0524 24.2396C17.0442 20.6621 20.776 18.4953 24.3696 19.407C25.2346 19.6244 26.0441 20.0083 26.7488 20.5353C27.4534 21.0622 28.0382 21.7211 28.4676 22.4717C29.3482 24.021 29.5755 25.834 29.1029 27.5386C28.6303 29.2432 27.4937 30.71 25.9264 31.6381C24.8858 32.2544 23.6875 32.5836 22.4637 32.5893V32.5893ZM22.7062 19.6622C19.903 19.6622 17.3036 21.5414 16.5228 24.3579C16.0733 25.9466 16.2863 27.6401 17.1169 29.0814C17.5117 29.7782 18.0512 30.3903 18.7023 30.8803C19.3534 31.3702 20.1023 31.7277 20.903 31.9306C21.7038 32.1335 22.5394 32.1777 23.3586 32.0604C24.1779 31.943 24.9634 31.6667 25.6669 31.2483C27.1348 30.3907 28.1966 29.0204 28.6276 27.4273V27.4273C29.0801 25.8398 28.8706 24.1463 28.0433 22.7037C27.6469 22.0079 27.1067 21.3965 26.4556 20.9067C25.8044 20.4169 25.0559 20.059 24.2556 19.8548C23.7524 19.7271 23.234 19.6624 22.7134 19.6622H22.7062Z" fill="white"/>
<path d="M16.3039 23.8845L16.1797 24.333L28.8371 27.5417L28.9613 27.0932L16.3039 23.8845Z" fill="white"/>
<path d="M23.9066 19.5359L20.4395 32.0469L20.9082 32.1658L24.3754 19.6548L23.9066 19.5359Z" fill="white"/>
<path d="M20.7776 32.2786L20.5352 31.8726C22.3441 30.9306 23.6026 29.9887 24.4949 28.9099C25.5954 27.533 26.1496 25.8271 26.059 24.0959C25.9135 22.4835 24.9387 21.0219 24.0803 19.732L24.4877 19.4814C25.3776 20.8178 26.3887 22.3304 26.5415 24.0565C26.6547 25.9058 26.0666 27.7321 24.8853 29.1999C23.6559 30.6824 21.9513 31.6684 20.7776 32.2786Z" fill="white"/>
<path d="M20.4749 32.239C19.522 30.9352 18.5981 29.4782 18.3144 27.6942C18.0485 25.8576 18.4842 23.9909 19.5414 22.437C20.5647 21.0149 22.3978 20.0915 23.8697 19.3491L24.0952 19.7598C22.6719 20.479 20.8969 21.3722 19.939 22.7015C18.9588 24.1605 18.5531 25.9056 18.7945 27.6246C19.0637 29.3158 19.9536 30.7148 20.8726 31.9746L20.4749 32.239Z" fill="white"/>
<path d="M26.726 23.7133C23.6892 23.7113 20.731 22.7895 18.2754 21.0801L18.5615 20.7065C21.4681 22.7274 25.0808 23.5907 28.6392 23.1147L28.7071 23.5787C28.0509 23.6687 27.3889 23.7136 26.726 23.7133V23.7133Z" fill="white"/>
<path d="M26.5188 31.0372C23.3107 28.7914 19.625 27.7567 16.4024 28.1952L16.332 27.7312C19.6783 27.2672 23.4975 28.339 26.8074 30.6567L26.5188 31.0372Z" fill="white"/>
<path d="M2.90655 41.09C2.87502 41.09 5.37019 31.9655 8.48369 20.732C11.5972 9.49858 14.1457 0.392583 14.1796 0.401863C14.2136 0.411143 11.7184 9.5241 8.6025 20.7622C5.48658 32.0003 2.94049 41.0993 2.90655 41.09Z" fill="#263238"/>
<path d="M26.944 42.106C26.944 42.1385 23.234 41.2268 18.6777 40.0714C14.1214 38.916 10.4332 37.9532 10.4453 37.9208C10.4575 37.8883 14.1529 38.8 18.7116 39.9554C23.2703 41.1108 26.9537 42.0736 26.944 42.106Z" fill="white"/>
<path d="M24.4931 43.0872C24.4931 43.1197 21.736 42.4515 18.3558 41.5931C14.9755 40.7347 12.2403 40.0155 12.25 39.9831C12.2597 39.9506 15.0071 40.6187 18.3873 41.4771C21.7675 42.3355 24.5028 43.0547 24.4931 43.0872Z" fill="white"/>
<path d="M23.549 8.57492L23.115 10.1432L22.904 10.0899L23.098 9.39388L22.2663 9.17812L22.0723 9.87412L21.8613 9.82076L22.2978 8.25244L22.5063 8.3058L22.3196 8.9786L23.161 9.19436L23.3478 8.51924L23.549 8.57492Z" fill="white"/>
<path d="M24.6725 10.3291L24.6192 10.524L23.5547 10.2548L23.9887 8.68652L25.0241 8.94868L24.9708 9.14356L24.1439 8.93476L24.0106 9.415L24.738 9.60292L24.6847 9.79316L23.9572 9.60756L23.8166 10.1133L24.6725 10.3291Z" fill="white"/>
<path d="M26.0021 10.4567L25.2237 10.2571L24.9546 10.6098L24.7363 10.5541L25.8372 9.16211L26.0433 9.21315L26.2858 10.9508L26.0651 10.8951L26.0021 10.4567ZM25.9803 10.2571L25.876 9.40803L25.3474 10.104L25.9803 10.2571Z" fill="white"/>
<path d="M26.9282 9.43115L27.1367 9.48451L26.756 10.858L27.5514 11.0598L27.498 11.2547L26.4941 10.9995L26.9282 9.43115Z" fill="white"/>
<path d="M28.2734 9.98117L27.7715 9.85357L27.8248 9.65869L29.0373 9.96725L28.9839 10.1621L28.482 10.0345L28.1013 11.408L27.8927 11.3546L28.2734 9.98117Z" fill="white"/>
<path d="M30.5294 10.3427L30.0929 11.9134L29.8844 11.86L30.0784 11.164L29.237 10.9506L29.043 11.6466L28.832 11.5932L29.2661 10.0249L29.477 10.0759L29.2903 10.7511L30.1317 10.9645L30.3185 10.2917L30.5294 10.3427Z" fill="white"/>
<path d="M19.6387 11.2755C19.5029 11.7697 19.0689 11.9901 18.516 11.8486L18.162 11.7581L18.0044 12.3265L17.4297 12.1803L18.0311 10.0088L18.9598 10.2408C19.5126 10.3846 19.7769 10.779 19.6387 11.2755ZM19.0592 11.1293C19.0756 11.0854 19.0814 11.0385 19.0761 10.9921C19.0708 10.9457 19.0546 10.9011 19.0287 10.8616C19.0028 10.822 18.9679 10.7886 18.9265 10.7639C18.8852 10.7392 18.8385 10.7237 18.79 10.7187L18.4724 10.6375L18.2954 11.2755L18.6154 11.3544C18.6597 11.373 18.7077 11.3818 18.756 11.3801C18.8043 11.3784 18.8516 11.3663 18.8943 11.3447C18.937 11.323 18.974 11.2924 19.0025 11.2551C19.0311 11.2178 19.0505 11.1748 19.0592 11.1293V11.1293Z" fill="white"/>
<path d="M20.9145 12.6143L20.0561 12.3962L19.7797 12.7767L19.1953 12.6282L20.6939 10.6841L21.2589 10.8279L21.5547 13.2268L20.9582 13.076L20.9145 12.6143ZM20.8733 12.1178L20.8054 11.3569L20.3495 11.9856L20.8733 12.1178Z" fill="white"/>
<path d="M21.6328 13.0366L21.9456 12.6329C22.1039 12.817 22.317 12.9505 22.5567 13.0157C22.7992 13.076 22.9083 13.0296 22.9374 12.9229C23.0319 12.5795 21.8074 12.5378 22.0305 11.7304C22.1396 11.343 22.5155 11.1017 23.1265 11.2664C23.3873 11.3266 23.6246 11.457 23.8103 11.6422L23.5072 12.032C23.3668 11.8908 23.1905 11.7868 22.9956 11.7304C22.7531 11.6701 22.644 11.7304 22.6125 11.8441C22.5203 12.1758 23.7424 12.2199 23.5193 13.0203C23.4151 13.3985 23.0344 13.6467 22.4257 13.4843C22.1194 13.4171 21.8424 13.2606 21.6328 13.0366V13.0366Z" fill="white"/>
<path d="M23.5078 13.5143L23.823 13.1083C23.9808 13.2929 24.1941 13.4266 24.4341 13.4911C24.6766 13.5514 24.7833 13.505 24.8124 13.3983C24.9069 13.0549 23.6848 13.0131 23.9079 12.2058C24.0146 11.8183 24.3929 11.5771 25.0015 11.7302C25.2613 11.7928 25.4979 11.9229 25.6853 12.106L25.3822 12.5167C25.2421 12.3708 25.0638 12.2635 24.8657 12.2058C24.6232 12.1455 24.5141 12.2058 24.485 12.3195C24.3929 12.6512 25.6126 12.6953 25.3919 13.4957C25.2852 13.8739 24.907 14.1221 24.2983 13.9597C23.9933 13.8924 23.7173 13.7368 23.5078 13.5143V13.5143Z" fill="white"/>
<path d="M27.6836 13.3169C27.5454 13.8087 27.1138 14.0291 26.5585 13.8876L26.2069 13.7994L26.0493 14.3679L25.4746 14.2217L26.076 12.0479L27.0047 12.2799C27.5576 12.4237 27.8219 12.8204 27.6836 13.3169ZM27.1162 13.1684C27.1327 13.1246 27.1385 13.0778 27.1332 13.0316C27.1279 12.9853 27.1117 12.9408 27.0858 12.9014C27.0598 12.8621 27.0248 12.8289 26.9835 12.8044C26.9421 12.7799 26.8955 12.7647 26.8471 12.7601L26.527 12.6789L26.3524 13.3146L26.6701 13.3958C26.7146 13.4144 26.763 13.4231 26.8116 13.4213C26.8602 13.4194 26.9077 13.4071 26.9506 13.3853C26.9935 13.3634 27.0307 13.3325 27.0594 13.295C27.088 13.2574 27.1075 13.2142 27.1162 13.1684V13.1684Z" fill="white"/>
<path d="M27.8101 13.6558C27.8786 13.4467 28.0098 13.2615 28.1873 13.1232C28.3649 12.9849 28.581 12.8995 28.8088 12.8776C29.0367 12.8558 29.2662 12.8985 29.4689 13.0004C29.6716 13.1023 29.8386 13.2589 29.9491 13.4508C30.0595 13.6427 30.1087 13.8614 30.0904 14.0798C30.072 14.2982 29.9871 14.5066 29.846 14.6792C29.705 14.8517 29.514 14.9809 29.2969 15.0505C29.0798 15.1202 28.8461 15.1273 28.6248 15.071C28.4716 15.0333 28.328 14.9661 28.203 14.8734C28.0779 14.7807 27.9741 14.6644 27.8977 14.5319C27.8214 14.3993 27.7743 14.2532 27.7592 14.1025C27.7441 13.9518 27.7614 13.7998 27.8101 13.6558V13.6558ZM29.4856 14.0803C29.495 13.9763 29.4731 13.872 29.4228 13.7794C29.3724 13.6868 29.2955 13.6099 29.2011 13.5576C29.1067 13.5053 28.9987 13.4798 28.8897 13.484C28.7807 13.4882 28.6753 13.5221 28.5856 13.5815C28.496 13.641 28.4259 13.7236 28.3835 13.8198C28.3411 13.916 28.3282 14.0217 28.3463 14.1246C28.3644 14.2275 28.4128 14.3234 28.4857 14.401C28.5586 14.4786 28.6531 14.5348 28.7582 14.5629C28.8398 14.5807 28.9243 14.5819 29.0064 14.5666C29.0885 14.5512 29.1663 14.5195 29.2349 14.4736C29.3034 14.4277 29.3611 14.3686 29.4043 14.3001C29.4475 14.2315 29.4752 14.1551 29.4856 14.0757V14.0803Z" fill="white"/>
<path d="M31.1159 15.0341L30.8031 14.9552L30.643 15.5329L30.0684 15.3867L30.6721 13.2129L31.5984 13.4449C32.1537 13.5841 32.4156 13.9808 32.2798 14.4773C32.2496 14.6182 32.1782 14.7479 32.0739 14.8514C31.9695 14.9549 31.8366 15.0279 31.6906 15.0619L31.9331 15.8554L31.3172 15.6999L31.1159 15.0341ZM31.4311 13.9251L31.111 13.8439L30.9365 14.4796L31.2541 14.5608C31.2986 14.5747 31.3456 14.5798 31.3923 14.5758C31.4389 14.5717 31.4842 14.5586 31.5254 14.5373C31.5665 14.5159 31.6027 14.4867 31.6317 14.4515C31.6607 14.4163 31.6818 14.3758 31.6939 14.3325C31.706 14.2892 31.7086 14.244 31.7018 14.1997C31.695 14.1554 31.6788 14.1128 31.6542 14.0747C31.6296 14.0366 31.5971 14.0036 31.5588 13.9779C31.5204 13.9522 31.477 13.9342 31.4311 13.9251Z" fill="white"/>
<path d="M33.0861 14.352L32.4629 14.1942L32.5963 13.707L34.4149 14.171L34.2815 14.6582L33.6608 14.5005L33.1928 16.1871L32.6181 16.041L33.0861 14.352Z" fill="white"/>
<path d="M20.9885 8.58198C20.5401 8.52986 20.0977 8.43822 19.667 8.30822C19.2252 8.2172 18.7933 8.08671 18.377 7.91846C19.267 8.06193 20.1413 8.28405 20.9885 8.58198Z" fill="white"/>
<path d="M20.7473 9.20355C20.3094 9.15503 19.8774 9.06646 19.4572 8.93907C19.0272 8.84949 18.6067 8.72212 18.2012 8.55859C19.0694 8.69546 19.922 8.91143 20.7473 9.20355V9.20355Z" fill="white"/>
<path d="M34.5183 12.0108C34.0698 11.9605 33.6273 11.8696 33.1967 11.7394C32.7543 11.6477 32.3217 11.5172 31.9043 11.3496C32.7955 11.4904 33.6708 11.7118 34.5183 12.0108V12.0108Z" fill="white"/>
<path d="M34.2751 12.6351C33.8372 12.5868 33.4052 12.4982 32.9851 12.3706C32.5538 12.2815 32.1324 12.1533 31.7266 11.9878C32.5959 12.1244 33.4494 12.3411 34.2751 12.6351V12.6351Z" fill="white"/>
<path d="M33.8611 29.7125C33.7318 29.9343 33.5573 30.1291 33.3481 30.2853C33.1388 30.4416 32.899 30.5562 32.6427 30.6224C32.3864 30.6885 32.1189 30.7049 31.8559 30.6706C31.5929 30.6363 31.3397 30.5519 31.1113 30.4224C31.1113 30.4224 32.154 28.8379 33.8611 29.7125Z" fill="white"/>
<path d="M32.2091 32.0582C32.0332 32.2031 31.8288 32.3127 31.6078 32.3807C31.3869 32.4488 31.154 32.4738 30.9228 32.4543C30.6916 32.4349 30.4668 32.3713 30.2617 32.2674C30.0566 32.1635 29.8753 32.0214 29.7285 31.8494C29.7285 31.8494 31.0767 30.8472 32.2091 32.0582Z" fill="white"/>
<path d="M30.2374 33.6426C30.0128 33.7425 29.7695 33.7983 29.5219 33.8068C29.2744 33.8154 29.0276 33.7764 28.796 33.6923C28.5644 33.6083 28.3527 33.4807 28.1734 33.3172C27.9941 33.1536 27.8508 32.9575 27.752 32.7402C27.752 32.7402 29.4469 32.0882 30.2374 33.6426Z" fill="white"/>
<path d="M29.9984 29.165C30.1732 29.3109 30.3158 29.4888 30.4176 29.6883C30.5194 29.8877 30.5785 30.1046 30.5914 30.3262C30.6043 30.5478 30.5707 30.7696 30.4926 30.9786C30.4145 31.1876 30.2935 31.3795 30.1367 31.543C30.1367 31.543 28.9073 30.4016 29.9984 29.165Z" fill="white"/>
<path d="M29.1747 30.9238C29.1747 30.9238 29.6378 32.0398 28.3405 32.5687C28.3405 32.5687 27.9428 31.3901 29.1747 30.9238Z" fill="white"/>
<path d="M33.6979 27.5339C33.6654 27.7328 33.5916 27.9235 33.4809 28.0948C33.3702 28.266 33.2249 28.4144 33.0534 28.5311C32.8819 28.6478 32.6878 28.7306 32.4824 28.7745C32.277 28.8183 32.0645 28.8225 31.8574 28.7867C31.8574 28.7867 32.1775 27.3436 33.6979 27.5339Z" fill="white"/>
<path d="M31.8455 25.5688C31.8455 25.5688 32.9682 26.3924 32.0274 27.6708C32.0274 27.6708 30.9289 26.7451 31.8455 25.5688Z" fill="white"/>
<path d="M30.5241 27.395C30.751 27.482 30.9573 27.6117 31.1307 27.7764C31.3041 27.9412 31.4411 28.1376 31.5336 28.354C31.6262 28.5704 31.6723 28.8024 31.6692 29.0362C31.6662 29.27 31.614 29.5009 31.5159 29.715C31.5159 29.715 29.8888 28.9796 30.5241 27.395Z" fill="white"/>
<path d="M26.4594 32.8698H26.5491C26.6097 32.8698 26.697 32.8698 26.8086 32.8698C27.1232 32.8566 27.4358 32.8146 27.7421 32.7446C28.1979 32.6379 28.6367 32.4733 29.0467 32.255C29.2884 32.1282 29.5202 31.9848 29.7402 31.8258L29.9124 31.6959L29.9972 31.631L30.0797 31.5614L30.247 31.4175C30.3003 31.3665 30.3513 31.3131 30.407 31.2621L30.4846 31.1832L30.5598 31.102C30.6083 31.0486 30.6592 30.9953 30.7077 30.9396L30.8435 30.7726L30.909 30.6914L30.9696 30.6055L31.0908 30.4362L31.2 30.2668L31.2533 30.181C31.2727 30.1531 31.2873 30.1253 31.3042 30.0951L31.3964 29.9258C31.611 29.5271 31.7739 29.1048 31.8813 28.6683C31.9525 28.3746 31.9987 28.0759 32.0196 27.7751C32.0196 27.6684 32.0196 27.5849 32.0196 27.5292V27.4642C32.0201 27.4573 32.0201 27.4503 32.0196 27.4434V27.5292C32.0196 27.5849 32.0196 27.6684 32.0196 27.7751C31.9997 28.0773 31.9551 28.3775 31.8862 28.673C31.7782 29.1108 31.6154 29.5345 31.4012 29.935L31.3067 30.1044L31.2582 30.1902C31.2412 30.2181 31.2218 30.2459 31.2048 30.2761L31.0957 30.4478L30.9745 30.6171L30.9138 30.7006C30.892 30.7308 30.8678 30.7563 30.8459 30.7842L30.7101 30.9535L30.5622 31.1159L30.4871 31.1971L30.407 31.276L30.247 31.4291L30.0821 31.5753L29.9972 31.6449L29.9124 31.7098L29.7402 31.8398C29.5186 31.9995 29.2852 32.1437 29.0419 32.2713C28.6307 32.4879 28.1911 32.6509 27.7349 32.7562C27.427 32.8262 27.1127 32.8666 26.7964 32.8768C26.6849 32.8768 26.5976 32.8768 26.537 32.8768H26.4473L26.4594 32.8698Z" fill="white"/>
<path d="M10.8556 23.8779C10.8529 24.1319 10.9035 24.3837 11.0042 24.6187C11.105 24.8537 11.2538 25.0669 11.4421 25.246C11.6303 25.425 11.8541 25.5662 12.1003 25.6611C12.3465 25.7561 12.6101 25.8029 12.8755 25.7989C12.8755 25.7989 12.7882 23.9266 10.8556 23.8779Z" fill="white"/>
<path d="M11.082 26.7011C11.1598 26.9103 11.2805 27.1025 11.4371 27.2663C11.5937 27.4302 11.783 27.5624 11.9939 27.6552C12.2047 27.7479 12.4328 27.7993 12.6648 27.8064C12.8967 27.8135 13.1278 27.7761 13.3444 27.6964C13.3444 27.6964 12.6849 26.1837 11.082 26.7011Z" fill="white"/>
<path d="M11.9668 29.0097C12.1102 29.2029 12.2926 29.3667 12.5032 29.4915C12.7138 29.6162 12.9483 29.6994 13.193 29.7362C13.4377 29.7729 13.6876 29.7625 13.928 29.7055C14.1684 29.6484 14.3945 29.546 14.5929 29.4041C14.5929 29.4041 13.4581 28.04 11.9668 29.0097Z" fill="white"/>
<path d="M14.4941 25.2324C14.2665 25.2764 14.0503 25.3635 13.8584 25.4886C13.6665 25.6137 13.5027 25.7742 13.3767 25.9608C13.2506 26.1473 13.1648 26.3561 13.1243 26.5749C13.0838 26.7937 13.0895 27.018 13.141 27.2346C13.141 27.2346 14.7996 26.8239 14.4941 25.2324Z" fill="white"/>
<path d="M14.2972 27.1514C14.2972 27.1514 13.3273 27.9007 14.1711 28.9749C14.1711 28.9679 15.1265 28.1397 14.2972 27.1514Z" fill="white"/>
<path d="M12.122 22.0635C12.0473 22.2517 12.0129 22.4523 12.0206 22.6535C12.0283 22.8547 12.078 23.0523 12.1668 23.2348C12.2557 23.4173 12.3818 23.5809 12.5377 23.716C12.6937 23.8512 12.8763 23.955 13.0749 24.0216C13.0749 24.0216 13.5381 22.6087 12.122 22.0635Z" fill="white"/>
<path d="M14.7509 21.2329C14.7509 21.2329 13.3469 21.4162 13.5045 22.9729C13.5045 22.9729 14.9376 22.6899 14.7509 21.2329Z" fill="white"/>
<path d="M14.9508 23.4463C14.7098 23.4152 14.4647 23.4306 14.2299 23.4915C13.9952 23.5523 13.7755 23.6575 13.5839 23.8009C13.3923 23.9442 13.2326 24.1228 13.1142 24.326C12.9958 24.5293 12.9211 24.7532 12.8945 24.9845C12.8945 24.9845 14.6816 25.1237 14.9508 23.4463Z" fill="white"/>
<path d="M15.6475 30.128L15.6281 30.1164L15.5699 30.0839C15.519 30.056 15.4414 30.0166 15.3492 29.9586C15.0806 29.7993 14.8296 29.6143 14.6 29.4064C14.2602 29.0982 13.965 28.7478 13.7222 28.3648C13.5784 28.1412 13.4504 27.9087 13.339 27.6688L13.259 27.4762L13.2178 27.3788C13.2057 27.3463 13.196 27.3115 13.1839 27.279C13.1717 27.2465 13.1378 27.1421 13.1135 27.0748L13.0553 26.8637L13.0262 26.7593L13.0044 26.6526C12.9874 26.583 12.9729 26.5111 12.9583 26.4415L12.9292 26.2327C12.9292 26.1979 12.9171 26.1631 12.9123 26.1306V26.0262C12.9123 25.9589 12.9001 25.8893 12.8929 25.822C12.8856 25.7548 12.8929 25.6898 12.8929 25.6225C12.8929 25.5552 12.8929 25.5576 12.8929 25.5251C12.8929 25.4926 12.8929 25.4578 12.8929 25.4253C12.8929 25.3928 12.8929 25.2977 12.8929 25.2351C12.9175 24.7865 12.9989 24.3425 13.1354 23.9127C13.2247 23.6234 13.3391 23.3417 13.4773 23.0705L13.5961 22.8524L13.6276 22.7944V22.7759V22.7944L13.5961 22.8501C13.567 22.9012 13.5233 22.9731 13.4724 23.0682C13.3325 23.3395 13.2158 23.6211 13.1232 23.9104C12.9867 24.3401 12.9053 24.7842 12.8807 25.2328C12.8807 25.2977 12.8807 25.3604 12.8807 25.4253C12.8783 25.4585 12.8783 25.4919 12.8807 25.5251C12.8807 25.5576 12.8807 25.59 12.8807 25.6225C12.8807 25.655 12.8807 25.7571 12.8807 25.8244C12.8807 25.8916 12.8807 25.9589 12.9001 26.0285V26.1329C12.9001 26.1654 12.9123 26.2002 12.9171 26.235L12.9462 26.4461C12.9608 26.5157 12.9777 26.5853 12.9923 26.6572L13.0141 26.764L13.0432 26.8684L13.1014 27.0795C13.1257 27.1491 13.1475 27.2164 13.1717 27.2836C13.196 27.3509 13.1936 27.3509 13.2081 27.3857C13.2227 27.4205 13.2348 27.4507 13.2493 27.4832L13.3293 27.6757C13.4406 27.9161 13.5694 28.1487 13.7149 28.3717C13.9585 28.7555 14.2554 29.106 14.5975 29.4134C14.8286 29.6209 15.0813 29.8051 15.3517 29.9632C15.4462 30.0212 15.5238 30.0584 15.5747 30.0862L15.6354 30.1164L15.6475 30.128Z" fill="white"/>
</svg>
