<svg width="20" height="20" viewBox="0 0 20 20" fill="none" xmlns="http://www.w3.org/2000/svg">
<path d="M13.6 2.275C13.8815 2.275 14.1497 2.37992 14.3459 2.56394C14.5419 2.74764 14.65 2.99465 14.65 3.25V16.75C14.65 17.0053 14.5419 17.2524 14.3459 17.4361C14.1497 17.6201 13.8815 17.725 13.6 17.725H6.4C6.11851 17.725 5.85034 17.6201 5.65406 17.4361C5.45811 17.2524 5.35 17.0053 5.35 16.75V3.25C5.35 2.99465 5.45811 2.74764 5.65406 2.56394C5.85034 2.37992 6.11851 2.275 6.4 2.275H13.6ZM6.4 0.85C5.72671 0.85 5.0792 1.10066 4.60035 1.54958C4.12117 1.99881 3.85 2.61024 3.85 3.25V16.75C3.85 17.3898 4.12117 18.0012 4.60035 18.4504C5.0792 18.8993 5.72671 19.15 6.4 19.15H13.6C14.2733 19.15 14.9208 18.8993 15.3996 18.4504C15.8788 18.0012 16.15 17.3898 16.15 16.75V3.25C16.15 2.61024 15.8788 1.99881 15.3996 1.54958C14.9208 1.10066 14.2733 0.85 13.6 0.85H6.4Z" fill="#22BBB0" stroke="#22BBB0" stroke-width="0.3"/>
<path d="M10 16.65C10.3713 16.65 10.7274 16.5025 10.9899 16.2399C11.2525 15.9774 11.4 15.6213 11.4 15.25C11.4 14.8787 11.2525 14.5226 10.9899 14.2601C10.7274 13.9975 10.3713 13.85 10 13.85C9.6287 13.85 9.2726 13.9975 9.01005 14.2601C8.7475 14.5226 8.6 14.8787 8.6 15.25C8.6 15.6213 8.7475 15.9774 9.01005 16.2399C9.2726 16.5025 9.6287 16.65 10 16.65Z" fill="#22BBB0" stroke="#22BBB0" stroke-width="0.3"/>
</svg>
