<svg width="24" height="24" viewBox="0 0 24 24" fill="none" xmlns="http://www.w3.org/2000/svg">
<path d="M18.4 8.11111V6.55556C18.4 5.69767 17.6824 5 16.8 5H6.4C5.0768 5 4 6.04689 4 7.33333V16.6667C4 18.3786 5.4352 19 6.4 19H18.4C19.2824 19 20 18.3023 20 17.4444V9.66667C20 8.80878 19.2824 8.11111 18.4 8.11111ZM6.4 6.55556H16.8V8.11111H6.4C6.19402 8.10215 5.99952 8.01629 5.85702 7.87141C5.71452 7.72653 5.63499 7.5338 5.63499 7.33333C5.63499 7.13287 5.71452 6.94013 5.85702 6.79525C5.99952 6.65037 6.19402 6.56451 6.4 6.55556V6.55556ZM18.4 17.4444H6.4096C6.04 17.4351 5.6 17.2928 5.6 16.6667V9.52278C5.8512 9.61067 6.1176 9.66667 6.4 9.66667H18.4V17.4444Z" fill="#22BBB0"/>
</svg>
