<svg width="20" height="20" viewBox="0 0 20 20" fill="none" xmlns="http://www.w3.org/2000/svg">
<path d="M10.8358 9.88735L10.8266 10.4133L11.307 10.7765C11.6742 11.054 12.1968 10.9814 12.4743 10.6142C12.4873 10.5968 12.4873 10.5968 12.4996 10.579L12.6437 10.3661C12.9017 9.98506 13.4199 9.88531 13.801 10.1434C14.182 10.4014 14.2818 10.9195 14.0237 11.3006L13.8796 11.5134C13.8427 11.567 13.8427 11.567 13.8039 11.6193C12.9713 12.7207 11.4034 12.9386 10.302 12.106L9.99841 11.8765L9.68762 12.1096C9.65062 12.1374 9.61286 12.1641 9.57437 12.1897C8.42555 12.9556 6.87338 12.6452 6.1075 11.4964L5.97367 11.2956C5.71838 10.9127 5.82186 10.3953 6.2048 10.14C6.58774 9.88471 7.10513 9.98819 7.36042 10.3711L7.49425 10.5719C7.74954 10.9548 8.26693 11.0583 8.64987 10.803C8.6627 10.7944 8.67529 10.7855 8.68762 10.7763L9.15955 10.4223L9.16885 9.8896C8.91877 9.74577 8.75038 9.47591 8.75038 9.16672C8.75038 8.70648 9.12348 8.33338 9.58372 8.33338H10.417C10.8773 8.33338 11.2504 8.70648 11.2504 9.16672C11.2504 9.4743 11.0837 9.74297 10.8358 9.88735ZM17.4958 11.1488C17.3659 15.5678 14.4967 18.3334 10.0004 18.3334C5.50407 18.3334 2.63484 15.5678 2.50498 11.1488C2.20538 11.1586 1.90224 11.1093 1.61334 10.9982C0.438983 10.5465 -0.146865 9.22832 0.304811 8.05397L1.72404 4.36396C2.34979 2.73701 4.1234 1.86692 5.79302 2.36781L7.54666 2.8939C8.3008 2.63731 9.12264 2.50005 10.0004 2.50005C10.8781 2.50005 11.7 2.63731 12.4541 2.89391L14.2078 2.36781C15.8774 1.86692 17.651 2.73701 18.2768 4.36396L19.696 8.05397C20.1477 9.22832 19.5618 10.5465 18.3875 10.9982C18.0986 11.1093 17.7954 11.1586 17.4958 11.1488ZM17.4139 9.46318C17.5361 9.49535 17.6674 9.48944 17.7892 9.44258C18.1044 9.32134 18.2617 8.9675 18.1404 8.65227L16.7212 4.96226C16.4083 4.14879 15.5215 3.71374 14.6867 3.96418L14.5163 4.01532C16.0849 5.25588 17.1192 7.17572 17.4139 9.46318ZM2.58686 9.4632C2.88152 7.17573 3.91589 5.25587 5.48451 4.0153L5.31411 3.96418C4.4793 3.71374 3.5925 4.14879 3.27962 4.96226L1.86039 8.65227C1.73914 8.9675 1.8964 9.32134 2.21164 9.44258C2.33344 9.48943 2.46469 9.49534 2.58686 9.4632ZM10.0004 16.6667C13.6823 16.6667 15.8337 14.5153 15.8337 10.8334C15.8337 6.93579 13.4897 4.16672 10.0004 4.16672C6.51108 4.16672 4.16705 6.93579 4.16705 10.8334C4.16705 14.5153 6.31848 16.6667 10.0004 16.6667ZM6.66705 8.33338C6.20681 8.33338 5.83372 7.96029 5.83372 7.50005C5.83372 7.03981 6.20681 6.66672 6.66705 6.66672C7.12729 6.66672 7.50038 7.03981 7.50038 7.50005C7.50038 7.96029 7.12729 8.33338 6.66705 8.33338ZM13.3337 8.33338C12.8735 8.33338 12.5004 7.96029 12.5004 7.50005C12.5004 7.03981 12.8735 6.66672 13.3337 6.66672C13.794 6.66672 14.1671 7.03981 14.1671 7.50005C14.1671 7.96029 13.794 8.33338 13.3337 8.33338Z" fill="#22BBB0"/>
</svg>
