<svg width="41" height="39" viewBox="0 0 41 39" fill="none" xmlns="http://www.w3.org/2000/svg">
<path d="M3.64844 22.989V24.6796H5.41807V22.989V21.2983H3.64844V22.989Z" fill="#1E1E26"/>
<path d="M5.41733 12.8511H3.64453V14.5417H5.41733V12.8511Z" fill="#1E1E26"/>
<path d="M16.3685 31.4541H14.5957V33.1447H16.3685V31.4541Z" fill="#1E1E26"/>
<path d="M5.41807 16.2292V17.9199H3.64844V19.6105H5.41807V21.2981H7.19087H8.96367V22.9888H10.7333V21.2981H12.5061V19.6105V17.9199H10.7333V19.6105H8.96367H7.19087V17.9199V16.2292V14.5386H5.41807V16.2292Z" fill="#1E1E26"/>
<path d="M8.96225 12.8511H7.18945V14.5387H8.96225H10.7319V12.8511H8.96225Z" fill="#1E1E26"/>
<path d="M16.9341 26.4333H17.887V24.7427H16.9341H15.9844V26.4333H16.9341Z" fill="#1E1E26"/>
<path d="M12.5052 14.5386H10.7324V16.2292H12.5052V14.5386Z" fill="#1E1E26"/>
<path d="M24.9095 21.2983H23.1367V22.989H24.9095V21.2983Z" fill="#1E1E26"/>
<path d="M26.681 2.70996H24.9082V4.4006H26.681V2.70996Z" fill="#1E1E26"/>
<path d="M16.0483 16.2291V14.5384H17.8211V12.8508H16.0483V11.1602H14.2787V12.8508H12.5059V14.5384H14.2787V16.2291V17.9197V19.6104V21.298H16.0483V19.6104V17.9197H17.8211V16.2291H16.0483Z" fill="#1E1E26"/>
<path d="M24.9095 33.1266H26.6823V31.439H24.9095H23.1367V33.1266H24.9095Z" fill="#1E1E26"/>
<path d="M23.14 2.70996H21.3672V4.4006H23.14V2.70996Z" fill="#1E1E26"/>
<path d="M22.6922 16.2293V14.5387H20.9225V12.8511H19.1497V14.5387V16.2293H17.377V17.92H19.1497H20.9225V16.2293H22.6922Z" fill="#1E1E26"/>
<path d="M32.6966 12.8511H30.9238V14.5417H32.6966V12.8511Z" fill="#1E1E26"/>
<path d="M14.3294 21.2983H12.5566V22.989H14.3294V21.2983Z" fill="#1E1E26"/>
<path d="M21.3659 11.1604V9.4698H23.1355V7.77915H24.9083H26.6811V6.09153H24.9083V4.40088H23.1355V6.09153H21.3659V7.77915H19.5931V9.4698H17.8203V11.1604H19.5931H21.3659Z" fill="#1E1E26"/>
<path d="M21.3659 22.9886V21.298H23.1355V19.6104H21.3659H19.5931V21.298H17.8203V22.9886H19.5931H21.3659Z" fill="#1E1E26"/>
<path d="M26.6824 29.7485V28.0578H24.9096H23.1368V26.3672H21.3672V28.0578H19.5944V29.7485H17.8216H16.0488V31.4361H17.8216H19.5944H21.3672V29.7485H23.1368V31.4361H24.9096V29.7485H26.6824Z" fill="#1E1E26"/>
<path d="M19.5926 4.4006V2.70996H17.8198H16.047V4.4006H14.2773V6.09125H16.047H17.8198V4.4006H19.5926Z" fill="#1E1E26"/>
<path d="M19.5931 6.09131H17.8203V7.78196H19.5931V6.09131Z" fill="#1E1E26"/>
<path d="M24.0216 12.851H22.252V14.5386V16.2293V17.9199H24.0216H25.7944V16.2293H24.0216V14.5386H25.7944V12.851H27.5672V11.1604H25.7944V9.46973H24.0216V11.1604V12.851Z" fill="#1E1E26"/>
<path d="M17.8236 7.78174H16.0508V9.47238H17.8236V7.78174Z" fill="#1E1E26"/>
<path d="M23.1367 24.6794V26.367H24.9095H26.6823V24.6794H28.4551H30.2247V22.9888H28.4551H26.6823H24.9095V24.6794H23.1367Z" fill="#1E1E26"/>
<path d="M32.6966 17.9199H30.9238V19.6106H32.6966V17.9199Z" fill="#1E1E26"/>
<path d="M26.681 19.6104H24.9082V21.301H26.681V19.6104Z" fill="#1E1E26"/>
<path d="M31.1108 14.5386H29.3412H27.5684V16.2292H29.3412V17.9199H31.1108V16.2292V14.5386Z" fill="#1E1E26"/>
<path d="M30.2279 19.6104H28.4551V21.301H30.2279V19.6104Z" fill="#1E1E26"/>
<path d="M10.7241 29.7786H16.0425V22.9858H8.91962V24.6674H7.18164V26.3551H8.91962V28.0457H7.18164V29.7363H8.91962V29.7665H8.95444V31.427H7.18164V34.8053H8.95444V33.1207H10.7241V29.7786ZM14.678 24.287V28.5137H10.2461V24.287H14.678Z" fill="#1E1E26"/>
<path d="M33.7702 22.989H35.5398V21.2983H33.7702H31.9974H30.2246V22.989H31.9974H33.7702Z" fill="#1E1E26"/>
<path d="M33.7695 16.2293H35.5392V14.5387V12.8511H33.7695V14.5387V16.2293Z" fill="#1E1E26"/>
<path d="M19.6595 24.7427H17.8867V26.4333V28.124H19.6595V26.4333V24.7427Z" fill="#1E1E26"/>
<path d="M37.3119 22.9888H35.5391V24.6794H37.3119V22.9888Z" fill="#1E1E26"/>
<path d="M37.3119 19.6106V17.9199H35.5391V19.6106V21.2982H37.3119V19.6106Z" fill="#1E1E26"/>
<path d="M5.41807 31.439H3.64844V33.1266V34.8172H5.41807V33.1266V31.439Z" fill="#1E1E26"/>
<path d="M37.3152 11.1603V2.70703H28.4512V11.1603H37.3152ZM29.7839 9.89228V3.97804H35.9856V9.89228H29.7839Z" fill="#1E1E26"/>
<path d="M34.6538 5.24609H31.1113V8.62437H34.6538V5.24609Z" fill="#1E1E26"/>
<path d="M37.3152 26.3672H28.4512V34.8204H37.3152V26.3672ZM29.7808 33.5494V27.6352H35.9824V33.5494H29.7808Z" fill="#1E1E26"/>
<path d="M34.6538 28.9028H31.1113V32.2811H34.6538V28.9028Z" fill="#1E1E26"/>
<path d="M3.62305 2.70996V11.1632H12.487V2.70996H3.62305ZM11.1543 3.97794V9.89219H4.95264V3.97794H11.1543Z" fill="#1E1E26"/>
<path d="M9.82368 5.24609H6.28125V8.62437H9.82368V5.24609Z" fill="#1E1E26"/>
<path d="M1.09677 8.60006V2.60128C1.0564 2.04931 1.23492 1.50302 1.59696 1.07064C1.81362 0.842181 2.08079 0.662462 2.37916 0.544467C2.67753 0.426473 2.99965 0.37315 3.32227 0.388348H9.9386C9.98677 0.382526 10.0311 0.36015 10.0632 0.325412C10.0953 0.290674 10.113 0.245962 10.113 0.19966C10.113 0.153358 10.0953 0.108645 10.0632 0.0739076C10.0311 0.03917 9.98677 0.0167935 9.9386 0.0109717H3.39508C2.83936 -0.0169192 2.28772 0.115648 1.81223 0.391365C1.47203 0.608434 1.19265 0.90154 0.998429 1.24515C0.804207 1.58875 0.701034 1.97244 0.697895 2.36278C0.678901 3.35 0.697895 4.34023 0.697895 5.32745V8.60006C0.704 8.64599 0.727464 8.68823 0.763889 8.71884C0.800315 8.74945 0.8472 8.76634 0.895752 8.76634C0.944303 8.76634 0.991189 8.74945 1.02761 8.71884C1.06404 8.68823 1.0875 8.64599 1.09361 8.60006H1.09677Z" fill="#1E1E26"/>
<path d="M9.35882 37.6701H3.06539C2.48722 37.7077 1.91509 37.5387 1.46037 37.1961C1.22099 36.9893 1.03265 36.7345 0.90894 36.45C0.785226 36.1655 0.729208 35.8584 0.744921 35.5507V29.241C0.738816 29.1951 0.715352 29.1528 0.678927 29.1222C0.642501 29.0916 0.595616 29.0747 0.547064 29.0747C0.498513 29.0747 0.451632 29.0916 0.415206 29.1222C0.378781 29.1528 0.355312 29.1951 0.349207 29.241V35.4813C0.321334 36.0111 0.460248 36.5368 0.74809 36.9908C0.974703 37.3162 1.28183 37.5833 1.64236 37.7686C2.00289 37.954 2.40573 38.0518 2.8153 38.0535C3.85049 38.0716 4.88884 38.0535 5.92402 38.0535H9.35882C9.40699 38.0477 9.45127 38.0253 9.48337 37.9905C9.51547 37.9558 9.53318 37.9111 9.53318 37.8648C9.53318 37.8185 9.51547 37.7738 9.48337 37.739C9.45127 37.7043 9.40699 37.6819 9.35882 37.6761V37.6701Z" fill="#1E1E26"/>
<path d="M39.6478 29.1961V35.1979C39.6873 35.7483 39.5101 36.293 39.1508 36.7255C38.934 36.9538 38.6668 37.1334 38.3684 37.2514C38.0701 37.3693 37.7481 37.4228 37.4255 37.4078H30.8091C30.761 37.4136 30.7167 37.436 30.6846 37.4707C30.6525 37.5055 30.6348 37.5502 30.6348 37.5965C30.6348 37.6428 30.6525 37.6875 30.6846 37.7222C30.7167 37.7569 30.761 37.7793 30.8091 37.7852H37.3527C37.9084 37.8136 38.4602 37.681 38.9355 37.4048C39.2768 37.1895 39.5571 36.8972 39.7515 36.5538C39.9459 36.2104 40.0484 35.8266 40.0498 35.4364C40.0688 34.4461 40.0498 33.4589 40.0498 32.4717V29.1961C40.0437 29.1501 40.0203 29.1079 39.9838 29.0773C39.9474 29.0467 39.9005 29.0298 39.852 29.0298C39.8034 29.0298 39.7565 29.0467 39.7201 29.0773C39.6837 29.1079 39.6602 29.1501 39.6541 29.1961H39.6478Z" fill="#1E1E26"/>
<path d="M30.9244 0.388444H37.2178C37.7956 0.350416 38.3672 0.520651 38.8196 0.865449C39.0592 1.07207 39.2477 1.32686 39.3714 1.6114C39.4951 1.89595 39.551 2.20314 39.5351 2.51081V8.82054C39.5412 8.86648 39.5647 8.90871 39.6011 8.93932C39.6375 8.96994 39.6844 8.98683 39.733 8.98683C39.7815 8.98683 39.8284 8.96994 39.8648 8.93932C39.9012 8.90871 39.9247 8.86648 39.9308 8.82054V2.58025C39.9601 2.05027 39.821 1.5242 39.5319 1.07074C39.3051 0.745566 38.9979 0.478567 38.6375 0.293253C38.277 0.107938 37.8742 0.00999733 37.4647 0.0080507C36.4295 -0.0100634 35.3943 0.0080507 34.3592 0.0080507H30.9244C30.8762 0.0138726 30.8319 0.0362491 30.7998 0.0709867C30.7677 0.105724 30.75 0.150437 30.75 0.196739C30.75 0.243041 30.7677 0.287749 30.7998 0.322487C30.8319 0.357224 30.8762 0.379605 30.9244 0.385427V0.388444Z" fill="#1E1E26"/>
</svg>
