<svg width="13" height="13" viewBox="0 0 13 13" fill="none" xmlns="http://www.w3.org/2000/svg">
<path d="M12.0547 6.51811C12.0189 6.06173 11.947 5.60858 11.8394 5.16257C11.7001 4.64327 11.4803 4.1467 11.1873 3.68929C10.4936 2.58694 9.41864 1.74965 8.1475 1.32151C6.87635 0.893371 5.48847 0.901157 4.2227 1.34352C3.69731 1.52039 3.20392 1.77399 2.76014 2.09525C2.52938 2.25806 2.31044 2.43558 2.10484 2.6266C1.90278 2.82712 1.71456 3.0399 1.54134 3.26361C0.811501 4.20652 0.4177 5.34764 0.4177 6.51961C0.4177 7.69158 0.811501 8.83271 1.54134 9.77562C1.71456 9.99933 1.90278 10.2121 2.10484 10.4126C2.31044 10.6037 2.52938 10.7812 2.76014 10.944C3.20392 11.2652 3.69731 11.5188 4.2227 11.6957C5.48881 12.1345 6.87539 12.1405 8.14562 11.7127C9.41586 11.2848 10.4909 10.4497 11.1873 9.34994C11.4803 8.89253 11.7001 8.39597 11.8394 7.87667C11.9471 7.42967 12.0191 6.97551 12.0547 6.51811C12.058 6.54822 12.058 6.57857 12.0547 6.60868C12.0547 6.67812 12.0547 6.76566 12.0547 6.87737C12.0541 7.02201 12.0414 7.16638 12.0167 7.30909C11.9938 7.50551 11.9568 7.70019 11.9059 7.89176C11.7773 8.42294 11.5638 8.93207 11.2727 9.40126C10.8467 10.0908 10.2719 10.6861 9.58645 11.1477C8.90097 11.6094 8.12045 11.9269 7.2966 12.0791C6.25562 12.2669 5.18088 12.1845 4.18471 11.8406C3.64278 11.6638 3.13325 11.4071 2.67466 11.0798C2.18481 10.7476 1.75679 10.3394 1.40838 9.87223C0.656091 8.90395 0.25 7.73076 0.25 6.52566C0.25 5.32056 0.656091 4.14735 1.40838 3.17908C1.58701 2.94856 1.78161 2.7297 1.99087 2.52396C2.20216 2.32814 2.42747 2.14656 2.66517 1.98053C3.1214 1.6517 3.62878 1.39297 4.16888 1.21371C5.16505 0.869807 6.2398 0.787434 7.28077 0.975203C8.10414 1.12767 8.88425 1.4449 9.56963 1.90598C10.255 2.36705 10.8301 2.96149 11.2569 3.65005C11.5477 4.11935 11.7613 4.62845 11.89 5.15956C11.9409 5.35113 11.978 5.54581 12.0008 5.74222C12.0255 5.88494 12.0382 6.0293 12.0388 6.17394C12.0388 6.28564 12.0388 6.3732 12.0388 6.43961C12.0468 6.46523 12.0521 6.49152 12.0547 6.51811V6.51811Z" fill="#1E1E26"/>
<path d="M5.98006 8.83993L3.15625 6.52435L4.00466 5.58543L5.89775 7.13721L8.87352 4.19971L9.8074 5.06013L5.98006 8.83993Z" fill="#1E1E26"/>
</svg>
