<svg width="458" height="91" viewBox="0 0 458 91" fill="none" xmlns="http://www.w3.org/2000/svg">
<path d="M65.8768 26.4448L0.541016 91.0002H190.287L134.207 35.5902L105.351 64.1021L65.8768 26.4448Z" fill="url(#paint0_linear_1112_10435)"/>
<path d="M283.073 0L191.207 90.9997H458L379.149 12.8916L338.575 53.0832L283.073 0Z" fill="url(#paint1_linear_1112_10435)"/>
<path d="M57.3776 69.9688L46.9492 60.5254H74.3237L85.1866 69.9688H57.3776Z" fill="#87E4E2"/>
<path d="M46.9499 60.5254L36.5215 69.5395V89.714H57.3783V69.9688L46.9499 60.5254Z" fill="white"/>
<rect x="44.3438" y="77.2671" width="5.21419" height="5.15093" fill="#F8EC4E"/>
<rect x="57.377" y="70.3999" width="27.809" height="19.7452" fill="#2D2D2D"/>
<path d="M92.5721 66.1055L83.4473 90.1431H101.697L92.5721 66.1055Z" fill="#87E4E2"/>
<path d="M103.871 72.9727L97.3535 90.5717H110.389L103.871 72.9727Z" fill="#EBEBEC"/>
<rect x="297.23" y="49.7944" width="27.809" height="40.3489" fill="white"/>
<rect x="357.193" y="49.7944" width="27.809" height="40.3489" fill="white"/>
<path d="M276.374 30.9048L265.945 41.8166V90.1405H286.802V42.3362L276.374 30.9048Z" fill="white"/>
<path d="M286.801 40.3511L276.373 49.3652V89.2849H297.23V49.7944L286.801 40.3511Z" fill="#2D2D2D"/>
<path d="M347.633 40.3511L337.205 49.3652V89.2849H358.062V49.7944L347.633 40.3511Z" fill="#2D2D2D"/>
<rect x="238.137" y="40.3511" width="27.809" height="49.7923" fill="#2D2D2D"/>
<path d="M331.556 47.2158L318.086 90.1402H345.026L331.556 47.2158Z" fill="#2D2D2D"/>
<path d="M338.509 52.3682L325.039 90.1416H351.979L338.509 52.3682Z" fill="#2D2D2D"/>
<path d="M189.906 66.104L180.781 90.1417H199.031L189.906 66.104Z" fill="#87E4E2"/>
<path d="M300.271 67.8208L292.016 90.1415H308.527L300.271 67.8208Z" fill="#2D2D2D"/>
<path d="M371.532 54.085L358.062 90.1415H385.002L371.532 54.085Z" fill="#87E4E2"/>
<path d="M199.463 72.9717L192.945 90.5707H205.981L199.463 72.9717Z" fill="#EFEEF1"/>
<path d="M297.231 49.7944L286.803 40.3511H314.177L325.04 49.7944H297.231Z" fill="#87E4E2"/>
<path d="M357.192 49.7944L346.764 40.3511H374.138L385.001 49.7944H357.192Z" fill="#87E4E2"/>
<path d="M269.421 70.3941L258.992 60.9507H286.367L297.23 70.3941H269.421Z" fill="#87E4E2"/>
<path d="M341.552 70.3941L351.98 60.9507H324.606L313.743 70.3941H341.552Z" fill="#87E4E2"/>
<path d="M265.945 40.3482L276.373 30.9048H248.999L238.136 40.3482H265.945Z" fill="#87E4E2"/>
<path d="M258.993 60.9507L248.564 69.9648V90.1393H269.421V70.3941L258.993 60.9507Z" fill="#F5F4F7"/>
<path d="M351.979 60.9507L341.551 69.9648V90.1393H362.408V70.3941L351.979 60.9507Z" fill="white"/>
<rect x="256.387" y="77.2622" width="5.21419" height="5.15093" fill="#F8EC4E"/>
<rect x="248.564" y="51.5098" width="5.21419" height="5.15093" fill="white"/>
<rect x="308.527" y="58.3755" width="5.21419" height="5.15093" fill="#F8EC4E"/>
<rect x="308.527" y="74.689" width="5.21419" height="5.15093" fill="#F8EC4E"/>
<rect x="349.373" y="77.6914" width="5.21419" height="5.15093" fill="#2D2D2D"/>
<rect x="313.742" y="70.3945" width="27.809" height="19.7452" fill="#F5F4F7"/>
<rect x="269.422" y="70.3945" width="27.809" height="19.7452" fill="white"/>
<defs>
<linearGradient id="paint0_linear_1112_10435" x1="86.9178" y1="26.6655" x2="210.557" y2="152.403" gradientUnits="userSpaceOnUse">
<stop stop-color="#ECE9F1"/>
<stop offset="1" stop-color="#ECE9F1" stop-opacity="0"/>
</linearGradient>
<linearGradient id="paint1_linear_1112_10435" x1="338.942" y1="-4.48326e-06" x2="302.534" y2="139.053" gradientUnits="userSpaceOnUse">
<stop stop-color="#ECE9F1"/>
<stop offset="1" stop-color="#F5F4F7" stop-opacity="0.65"/>
</linearGradient>
</defs>
</svg>
