<svg width="24" height="24" viewBox="0 0 24 24" fill="none" xmlns="http://www.w3.org/2000/svg">
<path d="M17.425 16.05L20.125 3C20.125 3 15.4 3.9 15.4 5.7C15.4 6.825 17.2 7.5 16.525 8.175C15.85 8.85 13.375 9.525 13.375 11.325C13.375 12.45 14.113 13.287 13.375 14.025C12.7 14.7 12.025 14.3463 10.9 14.025C9.64 13.665 7.075 13.35 6.175 13.575C5.275 13.8 4.375 14.25 4.375 15.6C4.375 16.3425 4.825 17.175 5.95 17.4C7.075 17.625 8.425 16.5 10.225 16.5C12.025 16.5 14.275 17.85 15.625 17.85C16.975 17.85 17.425 16.05 17.425 16.05Z" stroke="#22BBB0" stroke-width="1.4" stroke-linejoin="round"/>
<path d="M6.17422 17.4004L4.82422 21.0004H19.6742L16.9742 17.4004" stroke="#22BBB0" stroke-width="1.4" stroke-linejoin="round"/>
</svg>
