<svg width="116" height="35" viewBox="0 0 116 35" fill="none" xmlns="http://www.w3.org/2000/svg">
<path d="M16.1243 1.72124C16.1243 3.27025 16.1243 3.27025 14.5409 3.62641C8.8374 4.90961 4.18089 9.95338 3.50461 15.5811C2.62464 22.8941 7.05981 29.3022 14.3888 31.3043C22.0152 33.3888 30.4239 28.7706 32.4663 21.3883C32.6955 20.5691 32.8634 19.735 32.9687 18.8926C33.0027 18.6124 33.1045 18.5207 33.3843 18.5246C34.2221 18.5377 35.0586 18.5456 35.8952 18.5246C36.3025 18.5129 36.3881 18.6556 36.3487 19.0235C35.9658 22.5366 34.6988 25.7145 32.3834 28.4511C29.4556 31.9158 25.7008 34.1182 21.1013 34.7689C14.3019 35.7314 8.6079 33.635 4.16867 28.5912C1.12679 25.1371 -0.221681 21.0505 0.0295454 16.5448C0.480395 8.40306 6.60352 1.75791 14.9483 0.229847C16.1243 0.013798 16.1243 0.0137958 16.1243 1.13594V1.72124Z" fill="#22BCB1"/>
<path d="M90.305 0.0781685C91.9794 0.0781685 93.6538 0.0912627 95.3295 0.0703125C95.7532 0.0703125 95.8292 0.184234 95.6962 0.549554C95.4368 1.26841 95.1733 1.98988 94.971 2.72445C94.8447 3.18012 94.6342 3.33725 94.1304 3.33201C91.5285 3.30582 88.9239 3.37915 86.3247 3.30058C84.5322 3.24559 83.473 4.21715 83.5884 5.97436C83.6699 7.2353 83.5952 8.5041 83.6061 9.77159C83.6183 11.1726 84.486 12.0159 85.9255 12.0237C87.8498 12.0329 89.7727 12.0106 91.6956 12.0368C92.1817 12.0434 92.327 11.8902 92.2958 11.4411C92.2578 10.9402 92.2578 10.4374 92.2958 9.93657C92.3338 9.43638 92.1817 9.24783 91.6236 9.26616C90.3579 9.30806 89.0896 9.26616 87.8212 9.28842C87.3745 9.29759 87.2319 9.15748 87.2509 8.73324C87.2835 8.01439 87.2713 7.29291 87.2509 6.57406C87.2427 6.23231 87.3201 6.05946 87.7316 6.06208C90.1977 6.07605 92.6642 6.07605 95.1312 6.06208C95.5386 6.06208 95.616 6.22183 95.6147 6.56751C95.6047 9.31635 95.6047 12.0661 95.6147 14.8167C95.6147 15.1977 95.4789 15.2907 95.1068 15.2894C91.9169 15.2763 88.7243 15.3221 85.5358 15.2671C82.6528 15.2186 80.2749 12.8447 80.2396 10.0597C80.217 8.46918 80.217 6.87696 80.2396 5.28299C80.2718 3.91637 80.849 2.61428 81.8514 1.64756C82.8537 0.680836 84.204 0.1239 85.6213 0.0925779C87.1816 0.0663901 88.7447 0.0925779 90.305 0.0925779V0.0781685Z" fill="#22BCB1"/>
<path d="M22.8197 3.90203C22.8197 7.54083 22.8089 11.0945 22.832 14.6482C22.832 15.1458 22.7274 15.3278 22.1788 15.2911C21.4142 15.24 20.6415 15.2649 19.8702 15.2911C19.5429 15.3003 19.4479 15.1968 19.4492 14.8826C19.4574 10.064 19.4574 5.24547 19.4492 0.426909C19.4492 -0.0772065 19.7045 -0.00388062 20.0454 0.0340917C25.2492 0.614152 29.448 2.91475 32.6828 6.87435C32.7086 6.90708 32.7411 6.93589 32.7764 6.97255C32.9815 6.8534 32.8797 6.65961 32.881 6.50772C32.8892 4.54363 32.8973 2.57955 32.881 0.615461C32.881 0.204313 32.9652 0.034092 33.4351 0.0589705C34.1805 0.0982511 34.9276 0.0982511 35.673 0.0589705C36.1415 0.034092 36.276 0.155864 36.2719 0.622007C36.2447 3.08628 36.2597 5.55056 36.2597 8.01352C36.2597 10.2604 36.2474 12.506 36.2692 14.7516C36.2692 15.172 36.17 15.3147 35.7178 15.2898C34.9944 15.2418 34.2685 15.2418 33.5451 15.2898C33.0019 15.3343 32.8321 15.1418 32.7303 14.6508C31.9888 11.1155 30.0876 8.25837 27.1205 6.06514C25.8269 5.11048 24.3719 4.37866 22.8197 3.90203Z" fill="white"/>
<path d="M115.938 5.38091C115.944 4.17098 115.518 2.99587 114.732 2.05271C113.946 1.10956 112.847 0.455743 111.621 0.200969C110.282 -0.0923348 108.917 0.142046 107.954 0.0700295C106.498 0.0700295 105.435 0.0372948 104.374 0.0700295C101.762 0.168234 99.506 2.19648 99.2317 4.70789C99.058 6.5099 99.0416 8.3228 99.1828 10.1275C99.3852 13.2294 101.751 15.2603 104.969 15.2642C106.8 15.2642 108.636 15.2799 110.462 15.2642C113.093 15.2354 115.377 13.4153 115.815 10.9196C116.141 9.09304 115.932 7.23108 115.938 5.38091ZM112.571 9.83284C112.559 11.1422 111.674 12.0012 110.322 12.0195C109.395 12.0326 108.467 12.0195 107.541 12.0195C106.637 12.0195 105.732 12.0287 104.825 12.0195C103.447 12.0038 102.536 11.1357 102.517 9.80273C102.5 8.38597 102.503 6.9692 102.517 5.55244C102.529 4.21818 103.398 3.31601 104.787 3.28459C106.64 3.24356 108.495 3.24356 110.355 3.28459C111.713 3.3147 112.563 4.20116 112.573 5.51055C112.582 6.95612 112.585 8.39513 112.571 9.83284Z" fill="#22BCB1"/>
<path d="M40.324 4.94271C40.324 3.48143 40.3389 2.02016 40.3145 0.558877C40.3145 0.16606 40.4027 0.0351193 40.8319 0.0495226C41.5991 0.0861855 42.3704 0.0861855 43.1404 0.0495226C43.5858 0.0298818 43.7108 0.158204 43.708 0.591612C43.6877 3.25229 43.6958 5.91428 43.6985 8.57889C43.6985 10.8454 44.9343 12.0252 47.3053 12.0265C48.3686 12.0265 49.4333 12.0357 50.4966 12.0265C52.3815 12.0069 53.7408 10.7066 53.7557 8.88397C53.772 6.13513 53.772 3.38541 53.7557 0.634816C53.7557 0.198789 53.8277 0.0180947 54.3329 0.0469013C55.1219 0.0927299 55.9149 0.0639243 56.708 0.056068C56.9646 0.056068 57.1358 0.0835684 57.1317 0.40306C57.0896 3.45525 57.281 6.51398 57.0475 9.55831C56.8139 12.6026 54.4985 14.8744 51.344 15.2018C49.4876 15.3956 47.5878 15.4322 45.7274 15.1494C42.6529 14.6833 40.3729 12.071 40.3362 9.06336C40.3104 7.69243 40.3253 6.31757 40.324 4.94271Z" fill="white"/>
<path d="M76.85 0.127119C76.5295 1.08821 76.1968 2.03229 75.9062 2.98945C75.7894 3.37179 75.5069 3.27752 75.2571 3.27752C72.4062 3.28276 69.5545 3.28276 66.7018 3.27752C64.8699 3.27752 64.0619 4.06315 64.0619 5.82952C64.0619 7.13891 64.0619 8.4483 64.0619 9.75769C64.07 11.1797 64.9473 12.0203 66.4356 12.0229C69.3526 12.0229 72.275 12.036 75.1878 12.0151C75.6577 12.0151 75.8138 12.1238 75.7894 12.5886C75.7487 13.3493 75.765 14.114 75.7894 14.8774C75.7975 15.1851 75.7079 15.2846 75.382 15.2833C72.2383 15.2702 69.0932 15.32 65.9522 15.2571C63.4277 15.2061 61.1803 13.331 60.8353 10.9073C60.5196 8.72439 60.5237 6.50948 60.8476 4.32764C61.1993 2.00479 63.4114 0.145453 65.8449 0.0970059C69.4395 0.0249894 73.0422 0.0695112 76.6313 0.0668924C76.7064 0.0787605 76.7798 0.0989674 76.85 0.127119V0.127119Z" fill="white"/>
<path d="M71.8116 9.2645C70.6804 9.2645 69.5492 9.2514 68.4166 9.27235C68.0364 9.27235 67.8476 9.23569 67.8734 8.79312C67.9169 8.00748 67.8952 7.22185 67.8734 6.43622C67.8734 6.12851 67.906 5.97661 68.2998 5.98054C70.6537 6.00062 73.0075 6.00062 75.3613 5.98054C75.7063 5.98054 75.7687 6.09708 75.7687 6.39431C75.7511 7.22316 75.7456 8.052 75.7687 8.88216C75.7796 9.21736 75.6451 9.27497 75.3396 9.27497C74.1649 9.24879 72.9876 9.2645 71.8116 9.2645Z" fill="white"/>
</svg>
