<svg width="42" height="11" viewBox="0 0 42 11" fill="none" xmlns="http://www.w3.org/2000/svg">
<path d="M36.6884 10.3997H5.7088C4.37607 10.3997 3.09787 9.895 2.15519 8.99657C1.21251 8.09813 0.682496 6.87949 0.681657 5.60852V5.60852C0.679991 4.97792 0.808794 4.3532 1.06069 3.77015C1.31258 3.1871 1.68261 2.65716 2.14959 2.2107C2.61657 1.76424 3.17132 1.41002 3.78207 1.16834C4.39282 0.926651 5.04756 0.802244 5.7088 0.802246H36.6884C37.3485 0.802246 38.002 0.926272 38.6118 1.16724C39.2215 1.40821 39.7755 1.7614 40.242 2.20662C40.7086 2.65184 41.0786 3.18037 41.3309 3.76201C41.5832 4.34365 41.7128 4.967 41.7124 5.59644V5.59644C41.7141 6.22664 41.5854 6.85096 41.3336 7.43365C41.0819 8.01634 40.7121 8.54593 40.2454 8.99212C39.7787 9.4383 39.2243 9.79229 38.614 10.0338C38.0036 10.2754 37.3493 10.3997 36.6884 10.3997V10.3997Z" fill="#22BBB0"/>
</svg>
